<svg xmlns="http://www.w3.org/2000/svg" xmlns:xlink="http://www.w3.org/1999/xlink" width="472.766" height="471.57" viewBox="0 0 472.766 471.57"><defs><style>.a,.t{fill:none;}.b{clip-path:url(#a);}.c{fill:rgba(255,247,97,0.3);}.d{opacity:0.396;}.e,.g,.i,.p,.q,.r,.s{fill:#3c3c3c;}.e{opacity:0.245;}.e,.g,.i,.u{mix-blend-mode:multiply;isolation:isolate;}.f{opacity:0.249;}.h{opacity:0.46;}.i{opacity:0.252;}.j{opacity:0.251;}.k{opacity:0.252;}.l{opacity:0.247;}.m{opacity:0.252;}.n{fill:#212c2e;}.o{fill:#fff761;}.p,.s,.t{stroke:#212c2e;}.p,.s{stroke-miterlimit:10;}.p,.q,.t{stroke-width:2px;}.q{stroke:#3c3c3c;}.q,.t{stroke-linecap:round;stroke-linejoin:round;}.s{stroke-width:0.75px;}.u,.x{fill:#cbcbcb;}.v{fill:#e5e5e6;}.w{fill:#fafdff;}.y{fill:#597dac;}.z{fill:#1e1e3a;}.aa{fill:#242444;}.ab{fill:#fdc8a9;}.ac,.ag,.ah{fill:#fff;}.ad{fill:#a160ff;}.ae{fill:#6e39bc;}.af{fill:#323258;}.ag{opacity:0.86;}.ah{opacity:0.35;}.ai{fill:#262647;}.aj{opacity:0.1;fill:url(#b);}</style><clipPath id="a"><rect class="a" width="455" height="454" rx="227" transform="translate(0.147 -0.047)"/></clipPath><linearGradient id="b" x1="6.268" y1="3.187" x2="7.268" y2="3.187" gradientUnits="objectBoundingBox"><stop offset="0.01" stop-color="#bae1ff"/><stop offset="1" stop-color="#86c0ff"/></linearGradient></defs><g transform="translate(-0.147 17.617)"><g class="b" transform="translate(0 0)"><g transform="translate(0.567 0)"><rect class="c" width="455" height="454" rx="227" transform="translate(-0.419 -0.047)"/><g class="d" transform="translate(51.002 53.098)"><path class="e" d="M253.805,205.68a54.129,54.129,0,0,1-52.06,54.092q-1.031.041-2.072.04a54.13,54.13,0,1,1,54.132-54.132Z" transform="translate(-145.545 -151.552)"/></g><g class="f" transform="translate(253.376 325.636)"><path class="g" d="M253.805,205.68a54.129,54.129,0,0,1-52.06,54.092q-1.031.041-2.072.04a54.13,54.13,0,1,1,54.132-54.132Z" transform="translate(-145.545 -151.552)"/></g><g class="h" transform="translate(170.33 13.737)"><path class="i" d="M565.545,78.339A39.361,39.361,0,0,1,526.182,117.7a40.124,40.124,0,0,1-5.068-.322A39.365,39.365,0,1,1,565.5,76.462Q565.544,77.395,565.545,78.339Z" transform="translate(-486.822 -38.979)"/></g><g class="j" transform="translate(361.636 256.13)"><path class="g" d="M1096.227,763.358q0,1.025-.067,2.037a31.153,31.153,0,0,1-25.03,28.516,31.142,31.142,0,1,1,25.1-30.552Z" transform="translate(-1033.954 -732.222)"/></g><g class="k" transform="translate(15.877 167.212)"><path class="g" d="M119.782,515.263c0,.8-.025,1.585-.074,2.37a37.354,37.354,0,0,1-34.175,34.852q-1.53.126-3.1.127a37.347,37.347,0,1,1,37.346-37.348Z" transform="translate(-45.088 -477.917)"/></g><g class="l" transform="translate(72.281 337.842)"><path class="g" d="M-4.378,997.518a41.785,41.785,0,0,1-20.666,24.536,41.782,41.782,0,0,1-31.963,2.736,42.433,42.433,0,0,1-5.9-2.371,41.925,41.925,0,0,1-21.372-50.258,41.78,41.78,0,0,1,20.665-24.534,41.78,41.78,0,0,1,31.961-2.736A41.783,41.783,0,0,1-7.115,965.558a41.78,41.78,0,0,1,2.926,31.348C-4.251,997.109-4.313,997.313-4.378,997.518Z" transform="translate(86.251 -942.917)"/></g><g class="m" transform="translate(189.288 274.011)"><path class="g" d="M547.985,739.642c0,.078,0,.153,0,.231a29.612,29.612,0,1,1,0-.231Z" transform="translate(-488.221 -709.761)"/></g><g transform="translate(184.948 22.975)"><path class="n" d="M405.176,79.086a18.729,18.729,0,0,0,1.408-7.255c0-8.7-5.484-13.888-14.671-13.888s-14.671,5.192-14.671,13.888a18.962,18.962,0,0,0,1.194,6.739,22.837,22.837,0,0,0-11.8,19.716c0,12.775,11.078,19.9,24.744,19.9s24.744-7.128,24.744-19.9A22.748,22.748,0,0,0,405.176,79.086Zm-23.63-7.255c0-6.36,3.488-9.585,10.367-9.585s10.367,3.224,10.367,9.585a14.783,14.783,0,0,1-.957,5.277,26.335,26.335,0,0,0-18.946-.367A14.89,14.89,0,0,1,381.546,71.831Z" transform="translate(-366.632 -57.943)"/><g transform="translate(8.606 24.557)"><path class="o" d="M395,121.177c-9.652,0-16.138-5.3-16.138-13.191,0-8.356,7.239-15.155,16.138-15.155s16.137,6.8,16.137,15.155C411.134,115.876,404.649,121.177,395,121.177Zm0-26.194c-7.712,0-13.986,5.834-13.986,13,0,7.626,7.025,11.039,13.986,11.039s13.986-3.413,13.986-11.039C408.983,100.816,402.708,94.983,395,94.983Z" transform="translate(-378.859 -92.831)"/></g><g transform="translate(15.2 33.798)"><path class="o" d="M392.086,107.653a3.448,3.448,0,0,0-1.014.127,2.228,2.228,0,0,0-.678.329,2.055,2.055,0,0,0-.431.423c-.108.147-.209.288-.3.424a1.6,1.6,0,0,1-.3.329.628.628,0,0,1-.4.127.671.671,0,0,1-.567-.212.915.915,0,0,1-.16-.567,2.084,2.084,0,0,1,.559-1.388,2.965,2.965,0,0,1,.465-.431,3.517,3.517,0,0,1,.712-.415,5.224,5.224,0,0,1,.964-.313,5.555,5.555,0,0,1,1.244-.127,4.179,4.179,0,0,1,2.86.9,3.186,3.186,0,0,1,1.016,2.521,4.692,4.692,0,0,1-.061.712,3.933,3.933,0,0,1-.219.812,5.031,5.031,0,0,1-.449.88,5.406,5.406,0,0,1-.762.931,8.1,8.1,0,0,1-.9.778q-.472.357-.981.712t-1.058.752a12.977,12.977,0,0,0-1.109.906,3.464,3.464,0,0,0,1.168.372,10.585,10.585,0,0,0,1.4.084c.484,0,.874-.011,1.167-.034a6.69,6.69,0,0,0,.712-.085c.18-.033.321-.061.423-.084a1.519,1.519,0,0,1,.322-.033q.626,0,.626.575a.871.871,0,0,1-.424.778,3.048,3.048,0,0,1-1.016.4,7.147,7.147,0,0,1-1.218.152c-.418.018-.762.026-1.033.026-.146,0-.353-.008-.617-.026s-.55-.048-.855-.093a7.818,7.818,0,0,1-.923-.194,3.769,3.769,0,0,1-.845-.339,1.941,1.941,0,0,1-.618-.524,1.21,1.21,0,0,1-.237-.753,1.763,1.763,0,0,1,.431-1.126,7.1,7.1,0,0,1,1.075-1.049q.643-.516,1.388-1.033a17.183,17.183,0,0,0,1.388-1.066,6.744,6.744,0,0,0,1.075-1.142,2.138,2.138,0,0,0,.431-1.287,1.5,1.5,0,0,0-.584-1.294A2.764,2.764,0,0,0,392.086,107.653Z" transform="translate(-388.227 -105.96)"/><path class="o" d="M401.908,112.109a11.916,11.916,0,0,1,.2-2.116,6.027,6.027,0,0,1,.7-1.963,4.156,4.156,0,0,1,1.38-1.439,4.054,4.054,0,0,1,2.225-.558,4.616,4.616,0,0,1,1.82.322,3.625,3.625,0,0,1,1.244.846,3.852,3.852,0,0,1,.762,1.193,7.206,7.206,0,0,1,.406,1.4,9.7,9.7,0,0,1,.161,1.439q.025.712.025,1.3a8.01,8.01,0,0,1-.279,2.175,4.786,4.786,0,0,1-.846,1.7,3.878,3.878,0,0,1-1.423,1.109,4.7,4.7,0,0,1-2,.4,4.149,4.149,0,0,1-2.041-.465,3.8,3.8,0,0,1-1.353-1.252,5.4,5.4,0,0,1-.745-1.845A10.573,10.573,0,0,1,401.908,112.109Zm1.693-.034a8.49,8.49,0,0,0,.144,1.582,4.272,4.272,0,0,0,.466,1.32,2.572,2.572,0,0,0,.838.906,2.244,2.244,0,0,0,1.261.338,2.578,2.578,0,0,0,1.244-.287,2.522,2.522,0,0,0,.889-.8,3.651,3.651,0,0,0,.524-1.228,6.684,6.684,0,0,0,.169-1.539c0-.418-.017-.894-.051-1.43a5.371,5.371,0,0,0-.312-1.515,2.921,2.921,0,0,0-.822-1.2,2.273,2.273,0,0,0-1.557-.491,2.22,2.22,0,0,0-1.38.406,2.981,2.981,0,0,0-.854,1.041,4.654,4.654,0,0,0-.44,1.4A9.872,9.872,0,0,0,403.6,112.075Z" transform="translate(-392.278 -105.982)"/></g></g><g transform="translate(196.08 289.383)"><g transform="translate(0)"><path class="p" d="M254,371.441c0,1.023-2.815,2.265-6.8,2.265s-7.207-.83-7.207-1.853S243.227,370,247.207,370,254,370.418,254,371.441Z" transform="translate(-217.725 -366.191)"/><path class="n" d="M222.56,365.694a.453.453,0,0,0-.289-.306.464.464,0,0,0-.416.06c-1.892,1.358-6.488,3.767-11.283-.133.223-2.033-.554-3.853-2.063-4.4-1.891-.685-4.2.868-5.144,3.468a6.521,6.521,0,0,0-.39,2.156c-3.4,1.931-7.164,4.1-8.258,4.852a72.906,72.906,0,0,1-8.1,3.992.449.449,0,0,0-.236.229c-1.7,3.708,1.784,6.409,1.886,6.478,8.145,4.206,19.584-1.646,21.163-2.5a22.2,22.2,0,0,0,11.806.163,11.108,11.108,0,0,0,4.071-1.853.455.455,0,0,0,.182-.5Z" transform="translate(-185.913 -360.751)"/><path class="q" d="M209.945,399.2c9.778,2.79,15.824-1.559,15.824-1.559l-.743-2.838c-2.839,1.514-10.448,5.02-14.4,2.014a34.539,34.539,0,0,1-23.8,3.035,4.337,4.337,0,0,0,2.018,1.908C197.377,406.185,209.945,399.2,209.945,399.2Z" transform="translate(-186.451 -380.778)"/><g transform="translate(6.309 5.815)"><path class="o" d="M205.265,382.575a.411.411,0,0,1-.255-.052l-3.571-2.051a.412.412,0,0,1,.411-.714l2.058,1.182-1.072-1.616a.412.412,0,0,1,.528-.6l2.908,1.462-1.162-2.444a.412.412,0,0,1,.583-.53l2.863,1.712-1.093-2.3a.412.412,0,0,1,.527-.558L211,377.288l-.781-1.845a.412.412,0,0,1,.759-.321l1.169,2.761a.412.412,0,0,1-.534.542l-2.948-1.195,1.223,2.572a.412.412,0,0,1-.583.53l-2.863-1.712,1.093,2.3a.412.412,0,0,1-.557.545l-2.595-1.3,1.179,1.777a.412.412,0,0,1-.293.636Z" transform="translate(-201.232 -374.871)"/></g></g><g transform="translate(6.589 6.177)"><path class="p" d="M270,386.441c0,1.023-2.815,2.265-6.8,2.265s-7.207-.83-7.207-1.853S259.227,385,263.207,385,270,385.418,270,386.441Z" transform="translate(-233.725 -381.191)"/><path class="n" d="M238.56,380.694a.453.453,0,0,0-.289-.306.464.464,0,0,0-.416.06c-1.892,1.358-6.488,3.767-11.283-.133.223-2.033-.554-3.853-2.063-4.4-1.891-.685-4.2.868-5.144,3.468a6.522,6.522,0,0,0-.39,2.156c-3.4,1.932-7.164,4.1-8.258,4.852a72.922,72.922,0,0,1-8.1,3.992.449.449,0,0,0-.236.229c-1.7,3.708,1.784,6.409,1.886,6.478,8.145,4.206,19.584-1.646,21.163-2.5a22.2,22.2,0,0,0,11.806.164,11.108,11.108,0,0,0,4.071-1.853.455.455,0,0,0,.182-.5Z" transform="translate(-201.913 -375.751)"/><path class="q" d="M225.945,414.2c9.778,2.79,15.824-1.559,15.824-1.559l-.743-2.838c-2.839,1.514-10.448,5.02-14.4,2.014a34.539,34.539,0,0,1-23.8,3.035,4.337,4.337,0,0,0,2.018,1.908C213.377,421.185,225.945,414.2,225.945,414.2Z" transform="translate(-202.451 -395.778)"/><g transform="translate(6.309 5.815)"><path class="o" d="M221.265,397.575a.411.411,0,0,1-.255-.051l-3.571-2.051a.412.412,0,0,1,.411-.714l2.058,1.182-1.072-1.616a.412.412,0,0,1,.528-.6l2.908,1.462-1.162-2.444a.412.412,0,0,1,.583-.53l2.863,1.712-1.093-2.3a.412.412,0,0,1,.527-.558L227,392.288l-.781-1.845a.412.412,0,0,1,.759-.321l1.169,2.761a.412.412,0,0,1-.534.542l-2.948-1.195,1.223,2.572a.412.412,0,0,1-.583.53l-2.863-1.712,1.093,2.3a.412.412,0,0,1-.557.545l-2.595-1.3,1.179,1.777a.412.412,0,0,1-.293.636Z" transform="translate(-217.232 -389.871)"/></g></g></g><g transform="translate(83.969 349.572)"><path class="r" d="M117.939,173.68a8.007,8.007,0,0,0-6.483-1.477,10.991,10.991,0,0,0-5.786,3.188,34.287,34.287,0,0,0-8.6,1.717c-12.279,3.865-21.212,30.057-21.587,31.17a.646.646,0,1,0,1.225.412c.09-.266,9.092-26.68,20.749-30.349a36.754,36.754,0,0,1,7.01-1.58,19.116,19.116,0,0,0-1.161,1.659l-.022.007c-3.371,1.016-6.652,7.627-6.7,13.329a4.511,4.511,0,0,0-3.783.155c-2.717,1.525-7.22,5.267-6.842,13.193.295,6.171-.795,8.781-.8,8.8a.646.646,0,0,0,1.182.522c.05-.113,1.225-2.857.914-9.387-.345-7.233,3.726-10.626,6.184-12a3.687,3.687,0,0,1,3.206.11c.384,4.326,2.755,7.219,6.743,8.188,2.8.68,5.118.278,6.9-1.193q.179-.148.349-.309a9.73,9.73,0,0,0,1.792-.561c3.682-1.585,5.112-8.235,5.271-13.684,1.628-3.488,2.58-6.77,2.522-7.989A5.581,5.581,0,0,0,117.939,173.68Zm-11.692,2.975a11.265,11.265,0,0,1,2.434.222c-1.12.266-2.271.6-3.405.944A15.011,15.011,0,0,1,106.246,176.655Zm-2.1,2.86.536-.163a46.234,46.234,0,0,1,6.183-1.593l.061.042a5.275,5.275,0,0,1,2.07,4.347,51.772,51.772,0,0,1-.212,9.227,9.758,9.758,0,0,1-4.8,3.636c-2.775.693-5.308-.366-7.579-1.494a10.772,10.772,0,0,1,.248-5.09A34.619,34.619,0,0,1,104.143,179.515Zm-6.267,12.727c-.12-4.431,1.955-9.314,4.146-11.5A40.106,40.106,0,0,0,99.4,188.1a12.934,12.934,0,0,0-.436,4.691c-.366-.183-.729-.359-1.088-.522Zm5.807,7.838a7.14,7.14,0,0,1-5.673-6.319c.329.16.666.331,1.009.505l.279.141a7.42,7.42,0,0,0,2.276,3.477,9.951,9.951,0,0,0,6.183,2.2A7.379,7.379,0,0,1,103.683,200.08Zm6.311-1.439a9.5,9.5,0,0,1-7.578-1.737,6.052,6.052,0,0,1-1.347-1.639,10.743,10.743,0,0,0,7.227,1,9.087,9.087,0,0,0,4.052-2.543A10.84,10.84,0,0,1,109.994,198.641Zm2.054-.619a17.33,17.33,0,0,0,1.965-6.217,29.885,29.885,0,0,0,2.214-3.377C115.738,192.653,114.43,196.86,112.048,198.022Zm4.4-12.7a35.912,35.912,0,0,1-2.16,3.938,60.271,60.271,0,0,0,0-7.175,6.988,6.988,0,0,0-1.629-4.47c1.519.016,2.674.473,3.146,1.692A17.844,17.844,0,0,1,116.445,185.324Zm.561-6.482c-.784-2.025-2.609-2.618-4.88-2.51-.319.015-.647.044-.982.085a8.793,8.793,0,0,0-3.584-.991,9.377,9.377,0,0,1,4.141-1.954,6.726,6.726,0,0,1,5.44,1.223,4.294,4.294,0,0,1,1.782,2.966,16.043,16.043,0,0,1-1.28,4.868A13.655,13.655,0,0,0,117.005,178.842Z" transform="translate(-62.429 -172.047)"/><path class="n" d="M62.854,249.444l-4.741-2.759a.3.3,0,0,0-.392.076L47.361,260.074a3.021,3.021,0,0,0,.864,4.466,2.882,2.882,0,0,0,.3.151,3.034,3.034,0,0,0,3.608-.906l10.812-13.892a.3.3,0,0,0-.087-.448Z" transform="translate(-46.724 -212.835)"/><path class="o" d="M56.575,254.107l-7.3,9.382,5.029,3.375,7.3-9.382Z" transform="translate(-48.118 -216.916)"/><path class="n" d="M90.645,262.491l-5.322-1.326a.3.3,0,0,0-.355.182l-6.234,15.675a3.021,3.021,0,0,0,2.076,4.047,2.9,2.9,0,0,0,.326.063,3.033,3.033,0,0,0,3.211-1.877L90.853,262.9a.3.3,0,0,0-.012-.25A.3.3,0,0,0,90.645,262.491Z" transform="translate(-64.109 -220.771)"/><path class="o" d="M84.073,270.059l-4.394,11.047,5.771,1.837L89.844,271.9Z" transform="translate(-64.743 -225.639)"/></g><g transform="translate(371.414 263.897)"><path class="n" d="M393.477,231.773c-6.966,8.377-15.818,13.431-23.333,14.09a20.524,20.524,0,0,0,1.214,2.638,10.623,10.623,0,0,0,1.462,1.518c7.159,5.953,20.756,1.407,30.37-10.155s11.6-25.759,4.445-31.713a11.09,11.09,0,0,0-4.6-2.254C403.9,213.456,400.557,223.258,393.477,231.773Z" transform="translate(-369.217 -205.896)"/><path class="r" d="M387.154,226.758c6.966-8.378,15.818-13.432,23.333-14.09a20.478,20.478,0,0,0-1.214-2.637,10.624,10.624,0,0,0-1.462-1.518c-7.159-5.953-20.757-1.407-30.37,10.154s-11.6,25.76-4.445,31.713a11.088,11.088,0,0,0,4.6,2.255C376.726,245.075,380.073,235.273,387.154,226.758Z" transform="translate(-368.698 -205.896)"/><path class="n" d="M393.9,211.372a2.887,2.887,0,0,0-3.842-.045c-4.4,3.836-17.285,12.675-15.655,15.935.927,1.853,5.573,6.338,8.592,7.492a4.055,4.055,0,0,0,4.312-.934L399.828,221.3c1.294-1.293,1.449-3.3-.4-5.156Z" transform="translate(-370.696 -207.592)"/><path class="s" d="M392.968,208.48a2.889,2.889,0,0,0-3.843-.045c-4.4,3.837-16.358,13.6-14.728,16.862a18.17,18.17,0,0,0,7.665,6.565,4.056,4.056,0,0,0,4.311-.934L398.9,218.406a3.2,3.2,0,0,0-.11-4.637Z" transform="translate(-370.69 -206.553)"/><g transform="translate(13.206 6.696)"><path class="o" d="M393.128,224.686a.347.347,0,0,1-.281-.552l4.143-5.7-7.125,5.481a.347.347,0,0,1-.5-.475l4.006-5.724-2.946,1.623a.347.347,0,0,1-.335-.609l4.258-2.345a.347.347,0,0,1,.452.5l-3.565,5.094,7.24-5.569a.347.347,0,0,1,.493.479l-4.04,5.555,1.457-1.166a.348.348,0,0,1,.565.272v2.085a.347.347,0,1,1-.695,0v-1.362l-2.911,2.328A.346.346,0,0,1,393.128,224.686Z" transform="translate(-389.305 -216.345)"/></g><path class="o" d="M382.12,228.842a.927.927,0,1,1-.927-.927A.926.926,0,0,1,382.12,228.842Z" transform="translate(-372.853 -213.805)"/><path class="o" d="M385.825,232.3a.926.926,0,1,1-1.172.586A.927.927,0,0,1,385.825,232.3Z" transform="translate(-374.411 -215.363)"/><path class="o" d="M390.163,236.639a.927.927,0,1,1-1.172.586A.927.927,0,0,1,390.163,236.639Z" transform="translate(-375.97 -216.921)"/></g><g transform="translate(22.48 186.638)"><g transform="translate(40.85 24.417)"><path class="o" d="M432,378.957c-1.045,1.624-3.269.192-4.314,1.816s1.181,3.054.137,4.677-3.268.19-4.311,1.811,1.182,3.053.138,4.675a2,2,0,0,1-1.646.872.761.761,0,0,0-.369,1.385l.016.01,4.137,2.662,11.586-18.01-4.138-2.662-.019-.012a.761.761,0,0,0-1.107.91A2,2,0,0,1,432,378.957Z" transform="translate(-416.732 -374.49)"/><path class="t" d="M427.9,374.354l4.138,2.662-11.586,18.01-4.137-2.662a10.708,10.708,0,0,1-3.213-14.8h0A10.708,10.708,0,0,1,427.9,374.354Z" transform="translate(-411.394 -372.651)"/></g><g transform="translate(0 0)"><path class="o" d="M326.418,333c.412-1.3,2.188-.732,2.6-2.027s-1.364-1.86-.952-3.155,2.187-.729,2.6-2.023-1.364-1.859-.953-3.154a1.407,1.407,0,0,1,.959-.9.536.536,0,0,0,0-1.01l-.013,0-3.3-1.05-4.569,14.375,3.3,1.05.015,0a.536.536,0,0,0,.586-.822A1.412,1.412,0,0,1,326.418,333Z" transform="translate(-322.782 -319.685)"/><path class="t" d="M326.084,335.109l-3.3-1.05,4.569-14.375,3.3,1.05a7.542,7.542,0,0,1,4.9,9.472h0A7.542,7.542,0,0,1,326.084,335.109Z" transform="translate(-322.782 -319.685)"/></g><path class="t" d="M375.685,367.29c-4.986-.562-6.458-6.213-6.552-10.285a29,29,0,0,0-.813-8.046c-.708-2.261-2.63-5.3-5.256-5.5a6.951,6.951,0,0,0-3.866,1.377c-2.639,1.56-7.22,4.538-10.431,3.316-1.121-.426-1.968-1.431-3.122-1.759" transform="translate(-335.105 -332.497)"/><path class="t" d="M379.432,357.5c-4.986-.562-5.315-5.553-5.409-9.625a29.038,29.038,0,0,0-.813-8.046c-.709-2.261-2.63-5.3-5.256-5.5a6.953,6.953,0,0,0-3.866,1.377c-2.639,1.56-7.22,4.539-10.431,3.316-1.121-.426-1.968-1.431-3.122-1.759" transform="translate(-337.74 -327.578)"/><path class="t" d="M381.822,348.37c-5.35-.51-5.8-5.849-5.972-10.208-.117-2.9-.106-5.853-1.021-8.6-.8-2.408-2.916-5.632-5.732-5.789-1.488-.083-2.846.767-4.115,1.547-2.8,1.72-7.649,5-11.111,3.746-1.208-.436-2.135-1.5-3.376-1.826" transform="translate(-337.719 -321.884)"/></g><g transform="translate(278.176 341.725)"><path class="r" d="M112.551,384.6c-3.242-2.193-5.988-6.045-13.834-26.348-8.411-21.765-18.542-12.173-18.542-12.173l-3.3,2.168L73.3,349.929S59.827,353.565,74,372.1c13.223,17.29,15.075,21.643,15.253,25.551s4.774,21.7,13.836,19.983a33.87,33.87,0,0,0,19.281-10.807C128.57,400,115.792,386.787,112.551,384.6Z" transform="translate(-65.386 -337.786)"/><path class="n" d="M86.128,337.146c-3.027-1.223-7.4,1.937-9.482,3.666l-.815-1.453-5.689,3.189,2.551,4.551,1.138-.638.638,1.138-8.2,4.6a2.337,2.337,0,0,0-.9,3.181l1.408,2.513,23.9-13.392-1.408-2.513a2.316,2.316,0,0,0-.5-.607C88.419,339.147,87.542,337.717,86.128,337.146Zm-8.246,8.541-.638-1.139,1.138-.638L77.3,341.972c2.13-1.789,6.092-4.529,8.345-3.616a3.214,3.214,0,0,1,1.685,2.445,2.315,2.315,0,0,0-1.241.289Z" transform="translate(-65.071 -336.872)"/><path class="o" d="M89.461,390.5c-5.063-9.032-11.421-15.239-14.825-14.691.1.13.182.252.283.383,13.223,17.29,15.075,21.643,15.253,25.551a36.8,36.8,0,0,0,2.584,9.834,2.285,2.285,0,0,0,.9-.253C96.8,409.567,94.92,400.244,89.461,390.5Z" transform="translate(-66.303 -341.882)"/><path class="o" d="M106.479,380.79c5.459,9.74,12.432,16.209,15.574,14.448a2.955,2.955,0,0,0,1.295-1.961,35.77,35.77,0,0,0-6.515-6.646c-3.242-2.193-5.988-6.045-13.834-26.348-.068-.177-.138-.335-.206-.507a2.184,2.184,0,0,0-.509.188C99.141,361.726,101.02,371.05,106.479,380.79Z" transform="translate(-69.667 -339.821)"/></g></g><g transform="translate(207.073 26.914)"><path class="u" d="M809.15,186.1a109.053,109.053,0,1,1-2.483-23.293A109.091,109.091,0,0,1,809.15,186.1Z" transform="translate(-590.287 -76.667)"/><rect class="v" width="125.893" height="125.893" transform="translate(46.485 42.135)"/><rect class="r" width="122.943" height="122.943" transform="translate(46.485 42.135)"/><path class="o" d="M860.955,223.6v94.081L850.1,328.77H768.818l-10.859-11.088v-82.99L768.818,223.6Z" transform="translate(-699.332 -172.227)"/><path class="r" d="M854.749,223.6v92.14L843.889,326.6H762.611L751.752,315.74V234.463L762.611,223.6Z" transform="translate(-695.296 -172.227)"/><path class="w" d="M777.547,249.4v84.958h84.961V249.4Zm82.54,82.54H779.964V251.815h80.123Z" transform="translate(-712.071 -189.002)"/><path class="w" d="M791.384,263.227v75.285h75.285V263.227Zm72.864,72.867H793.8V265.647h70.447Z" transform="translate(-721.07 -197.996)"/><path class="w" d="M805.221,277.064v65.609h65.609V277.064Zm63.191,63.191H807.638v-60.77h60.773Z" transform="translate(-730.069 -206.995)"/><path class="w" d="M988.334,234.737h13.677v14.2h4.159V230.572H988.334Z" transform="translate(-849.156 -176.759)"/><path class="w" d="M1022.2,282.091v29.838h-5.5v2.42h7.917V282.091Z" transform="translate(-867.606 -210.264)"/><rect class="x" width="3.235" height="3.742" transform="translate(132.001 47.635)"/><rect class="y" width="3.235" height="1.439" transform="translate(132.001 49.938)"/><rect class="x" width="3.235" height="3.742" transform="translate(114.892 47.635)"/><rect class="y" width="3.235" height="1.439" transform="translate(114.892 49.938)"/><rect class="x" width="3.235" height="3.742" transform="translate(97.782 47.635)"/><rect class="y" width="3.235" height="1.439" transform="translate(97.782 49.938)"/><rect class="x" width="3.235" height="3.742" transform="translate(80.673 47.635)"/><rect class="y" width="3.235" height="1.439" transform="translate(80.673 49.938)"/><rect class="x" width="3.235" height="3.742" transform="translate(83.909 160.285) rotate(180)"/><rect class="y" width="3.235" height="1.438" transform="translate(83.909 157.981) rotate(180)"/><rect class="x" width="3.235" height="3.742" transform="translate(101.018 160.285) rotate(180)"/><rect class="y" width="3.235" height="1.438" transform="translate(101.018 157.981) rotate(180)"/><rect class="x" width="3.235" height="3.742" transform="translate(118.127 160.285) rotate(180)"/><rect class="y" width="3.235" height="1.438" transform="translate(118.127 157.981) rotate(180)"/><rect class="x" width="3.235" height="3.742" transform="translate(135.236 160.285) rotate(180)"/><rect class="y" width="3.235" height="1.438" transform="translate(135.236 157.981) rotate(180)"/></g><g transform="translate(15.797 215.914)"><path class="z" d="M47.429,696.674c5.375,9.974,12.658,16.482,22.632,11.107l97.46-52.525c9.973-5.375,8.542-15.037,3.167-25.011s-12.658-16.482-22.632-11.107L50.6,671.663C40.623,677.038,42.054,686.7,47.429,696.674Z" transform="translate(-43.238 -617.204)"/></g><path class="aa" d="M168.44,626.47c3.632,8.51,3.562,16.39-5.082,21.049L65.9,700.044c-8.644,4.658-15.264.384-20.376-7.329C41.89,684.2,41.96,676.324,50.6,671.665l97.46-52.525C156.708,614.482,163.328,618.756,168.44,626.47Z" transform="translate(-27.449 -401.292)"/><g transform="translate(-154.252 177.958)"><path class="ab" d="M-397.607,526.512l86.054,71.306-10.434-3.452L-200,600.192a7.312,7.312,0,0,1,6.955,7.653,7.314,7.314,0,0,1-6.581,6.928l-121.526,12.065a13.211,13.211,0,0,1-9.18-2.523l-1.255-.929-89.81-66.511a19.293,19.293,0,0,1-4.022-26.987,19.293,19.293,0,0,1,26.987-4.022C-398.168,526.061-397.86,526.3-397.607,526.512Z" transform="translate(434.068 -517.38)"/><path class="ac" d="M174.236,741.593l11.9-.055s-2.552,11.444-.592,18.717l-13.228-1.035Z" transform="translate(42.869 -660.109)"/><path class="ad" d="M-220.969,588.656l-103.277-2.832-79.888-71.237a26.017,26.017,0,0,0-2.338-1.831A23.394,23.394,0,0,0-439,518.816a23.4,23.4,0,0,0,6.06,32.525l92.315,63.315,1.62,1.112a13.6,13.6,0,0,0,8.851,2.339l76.9-6.417,2.764-.231,30.078-2.51Z" transform="translate(443.101 -508.651)"/><path class="ae" d="M-323.947,617.595a13.6,13.6,0,0,1-8.851-2.34l-1.62-1.112-92.315-63.316a23.394,23.394,0,0,1-6.06-32.525,23.345,23.345,0,0,1,4.254-4.663A23.271,23.271,0,0,0-439,522.06a23.394,23.394,0,0,0,6.06,32.525l92.315,63.315,1.62,1.112a13.606,13.606,0,0,0,8.851,2.34l109.747-9.158-.09-3.231Z" transform="translate(443.101 -511.896)"/><path class="ab" d="M208.867,754.53a11.707,11.707,0,0,0,3.477,4.5,62.719,62.719,0,0,1,8.674,8.629c5,6.072,22.126-5.332,35.212-14.1,10.369-6.945-7.625-6.027-15.546-5.347a12.906,12.906,0,0,1-6.338-1.1c-4.251-1.881-12.546-4.648-20.328-2.018C207.37,747.35,207.611,751.538,208.867,754.53Z" transform="translate(19.551 -661.725)"/><path class="ab" d="M240.873,725l-1.932-1s8.289-12.572,7.471-16.848,5.834-1.133,3.691,5.186,1.2,8.2,1.2,8.2-4.953,13.28-5.33,13.086S240.873,725,240.873,725Z" transform="translate(-0.464 -636.472)"/></g><g transform="translate(70.354 84.294)"><rect class="o" width="67.716" height="6.87" rx="3.435" transform="translate(0 17.665)"/><rect class="n" width="8.833" height="41.218" rx="4.416" transform="translate(11.777 0)"/><rect class="n" width="6.099" height="28.46" rx="3.049" transform="translate(5.292 5.888)"/><rect class="n" width="8.833" height="41.218" rx="4.416" transform="translate(56.325 41.218) rotate(180)"/><rect class="n" width="6.099" height="28.46" rx="3.049" transform="translate(62.809 35.33) rotate(180)"/><rect class="n" width="21.59" height="6.87" transform="translate(23.553 17.665)"/></g></g></g><g transform="translate(130.988)"><g transform="translate(0 195.395)"><path class="af" d="M376.724,563.884c3.209,5.955,5.478,10.961,11.432,7.752l75.1-40.475A12.247,12.247,0,0,0,451.636,509.6l-75.1,40.475C370.581,553.282,373.515,557.93,376.724,563.884Z" transform="translate(-373.098 -508.13)"/></g><path class="ag" d="M610.876,336.378a109.379,109.379,0,0,0,196.48-7.956,109.388,109.388,0,1,1-208-62.316A108.9,108.9,0,0,0,610.876,336.378Z" transform="translate(-514.231 -155.335)"/><path class="ah" d="M779.9,418.473S604.34,364.824,591.779,360.532s4.054-30.3,4.054-30.3L804.17,395.356Z" transform="translate(-512.263 -197.039)"/><path class="ah" d="M816.159,316.648s-187.535-56.89-200.095-61.182-3.2-11.694-3.2-11.694l213.121,63.84Z" transform="translate(-526.849 -140.81)"/><path class="ai" d="M560.358,531.182l-26.422,14.24a12.314,12.314,0,0,1-2.365-3.062L523.725,527.8a12.335,12.335,0,0,1-1.321-3.992l26.333-14.192a12.171,12.171,0,0,1,6.671-1.425l9.808,18.2A12.173,12.173,0,0,1,560.358,531.182Z" transform="translate(-470.199 -312.756)"/><path class="af" d="M788.536,200.472a121.66,121.66,0,1,0-235.98-11.748,12.208,12.208,0,0,0-1.326,3.874l-3.3,20.609a12.351,12.351,0,0,0,1.323,7.809l7.845,14.556a12.346,12.346,0,0,0,6.128,5.543l18.08,7.52a13.714,13.714,0,0,0,2.514.745,121.658,121.658,0,0,0,204.711-48.909ZM718.092,251.09a97.275,97.275,0,0,1-131.618-39.419l-.019-.035A97.163,97.163,0,1,1,718.092,251.09Z" transform="translate(-485.961 -10.835)"/><circle class="aj" cx="109.41" cy="109.41" r="109.41" transform="translate(32.32 154.729) rotate(-45)"/><path class="o" d="M825.393,528.109h46.674V517.379H836.124v-2.555Zm27.658-35.352H825.394v28.711l10.73-13.287v-4.726h8.285Zm-27.656-7.29h35.943v2.563l10.73-13.284H825.394Zm35.943,9.206V499.4h-8.287l-8.641,10.7h27.658V481.387h0Z" transform="translate(-664.229 -353.946)"/></g></svg>