<svg xmlns="http://www.w3.org/2000/svg" width="922.177" height="104.56" viewBox="0 0 922.177 104.56"><defs><style>.a{fill:#fff;}</style></defs><path class="a" d="M1030.748,475.878h-5.074L991.02,530.36l-34.376-54.482h-5.071l37.109,58.93v38.36h4.586V534.737ZM882.38,568.859l59.347-91.94v-1.041H877.284v4.306h57.169l-59.183,91.8v1.183h68.8v-4.308Zm-58.327-86.334,25.3,58.142H799.43Zm39.333,90.643h4.936l-42.369-97.29h-3.938l-41.254,97.29h4.865l12.021-28.239h53.509ZM726.67,568.859V475.878h-4.54v97.29H774.2v-4.308Z" transform="translate(-722.13 -472.381)"/><path class="a" d="M1356.235,476.394h-28.77l-20.709,39.753-21.265-39.753h-28.909l35.719,67.13v30.3h28.909V542.968Zm-187.908,0v22.519h46.7l-48.367,56.706v18.207H1254.5V551.307h-49.34l48.367-56.567V476.394Zm-71.716,60.74,11.953-31.831,11.675,31.831Zm36.97,36.692h30.855l-40.166-97.432h-29.743l-41.557,97.432h29.743l5.838-15.566h39.333ZM990.426,498.631h16.539c8.617,0,13.621,4.728,13.621,13.2,0,8.759-5,13.482-13.621,13.482H990.426Zm61.014,75.194L1031.7,541.995c10.563-5.973,16.4-16.536,16.4-30.991,0-22.1-15.01-34.61-41.14-34.61H961.517v97.432h28.909V547.554h15.288l12.926,26.271Zm-115.358-61.3L952.761,492.8c-9.868-10.563-25.573-17.234-40.306-17.234-30.16,0-52.4,20.987-52.4,49.34,0,28.767,21.821,50.174,51.425,50.174,14.733,0,30.716-7.366,41.279-18.766l-16.678-17.79c-6.671,6.81-15.705,11.258-23.21,11.258-13.2,0-23.211-10.838-23.211-25.156S899.669,499.6,912.872,499.6C920.934,499.6,929.968,504.747,936.083,512.53Z" transform="translate(-434.058 -473.039)"/><path class="a" d="M825.393,579.3v0h91.452V558.279H846.42v-5.006Zm54.192-69.267H825.4v56.255l21.024-26.033V531h16.233ZM825.4,495.751h70.425v5.022l21.024-26.027H825.4Zm70.425,18.037v9.262H879.585l-16.932,20.962h54.192V487.758h0Z" transform="translate(-506.458 -474.746)"/></svg>