<svg xmlns="http://www.w3.org/2000/svg" xmlns:xlink="http://www.w3.org/1999/xlink" width="45" height="41" viewBox="0 0 45 41">
  <defs>
    <clipPath id="clip-ic_add">
      <rect width="45" height="41"/>
    </clipPath>
  </defs>
  <g id="ic_add" clip-path="url(#clip-ic_add)">
    <g id="add" transform="translate(7 4.723)" opacity="0.856">
      <g id="Grupo_25002" data-name="Grupo 25002">
        <path id="Trazado_101411" data-name="Trazado 101411" d="M16.48,0A16.48,16.48,0,0,0,0,16.351a16.59,16.59,0,0,0,16.48,16.48A16.416,16.416,0,0,0,16.48,0Zm8.657,18.275H18.4v6.861a1.924,1.924,0,0,1-3.847,0V18.275H7.695a1.924,1.924,0,0,1,0-3.847h6.861V7.695a1.924,1.924,0,0,1,3.847,0v6.733h6.733a1.924,1.924,0,1,1,0,3.847Z" fill="#3c3c3c"/>
      </g>
    </g>
  </g>
</svg>
