<svg xmlns="http://www.w3.org/2000/svg" width="39.837" height="40.445" viewBox="0 0 39.837 40.445"><defs><style>.a{fill:#fff;}</style></defs><path class="a" d="M32.208,0H8.306A4.654,4.654,0,0,0,3.658,4.648V28.495a4.654,4.654,0,0,0,4.648,4.648h7.3V31.815h-7.3a3.324,3.324,0,0,1-3.32-3.32V17.263H9.25a.714.714,0,0,0,.608-.985,2.656,2.656,0,1,1,4.863,0,.689.689,0,0,0,.608.985h4.264v3.984a3.887,3.887,0,0,0-.664-.055,3.984,3.984,0,0,0-1.593,7.635l.531-1.216a2.656,2.656,0,0,1,1.062-5.091,2.623,2.623,0,0,1,1.062.224.664.664,0,0,0,.93-.608V17.263H24.3a3.887,3.887,0,0,0-.056.664,4,4,0,0,0,3.187,3.9l.266-1.3a2.664,2.664,0,0,1-2.125-2.6,2.623,2.623,0,0,1,.224-1.062.664.664,0,0,0-.608-.93H20.921V12.559a3.887,3.887,0,0,0,.664.056,3.984,3.984,0,1,0,0-7.967,3.887,3.887,0,0,0-.664.056V1.328H32.208a3.324,3.324,0,0,1,3.32,3.32V15.935H31.264a.664.664,0,0,0-.608.93,2.623,2.623,0,0,1,.224,1.062h1.328a3.887,3.887,0,0,0-.056-.664h4.04a.664.664,0,0,0,.664-.664V4.648A4.654,4.654,0,0,0,32.208,0ZM21.585,5.976a2.656,2.656,0,0,1,0,5.312,2.623,2.623,0,0,1-1.062-.224.664.664,0,0,0-.93.608V15.88H16.221a3.877,3.877,0,0,0,.052-.609v-.055a3.984,3.984,0,1,0-7.967,0v.055a3.877,3.877,0,0,0,.052.609H4.986V4.648a3.324,3.324,0,0,1,3.32-3.32H19.593V5.592a.664.664,0,0,0,.93.608A2.623,2.623,0,0,1,21.585,5.976Z" transform="translate(-3.658)"/><g transform="translate(12.939 18.534)"><path class="a" d="M185.041,233.32l-5.582-3.844-2.144-5.728a.664.664,0,0,0-.854-.391l-.037.015-4.316,1.909a.664.664,0,0,0-.352.845c.072.186.139.327.21.473a5.055,5.055,0,0,1,.217.5,2.657,2.657,0,1,1-5.135.8.664.664,0,0,0-.9-.656l-4.613,1.738a.664.664,0,0,0-.388.854l1.656,4.424a3.738,3.738,0,0,0-.644.178,3.992,3.992,0,1,0,3.4,7.191l1.187,3.171a.664.664,0,0,0,.855.389h0l6.578-2.479a3.565,3.565,0,0,0,2.1,1.878l.42-1.262a2.239,2.239,0,0,1-1.269-1.085l2-.754a4.634,4.634,0,0,0,4.372,3.081v-1.328a3.34,3.34,0,0,1-3.32-3.32.664.664,0,0,0-.195-.469l-2.312-2.312a.985.985,0,0,1-.091-1.281.967.967,0,0,1,.714-.389.952.952,0,0,1,.762.285l4.636,4.636.939-.939-1.372-1.372a4.632,4.632,0,0,0-.059-3.1l-1.244-3.323,4.012,2.763a2,2,0,0,1,.849,1.632v8.576h1.328v-8.576A3.326,3.326,0,0,0,185.041,233.32Zm-4.769,2.117a3.327,3.327,0,0,1,.194,1.529l-2.155-2.155a2.307,2.307,0,0,0-3.3,3.222l.041.041,2.1,2.1-9.383,3.534-1.265-3.382a.664.664,0,0,0-.477-.415.673.673,0,0,0-.144-.016.664.664,0,0,0-.465.189,2.656,2.656,0,1,1-2.781-4.408,2.557,2.557,0,0,1,.657-.149,2.357,2.357,0,0,1,.416-.014.664.664,0,0,0,.657-.9l-1.734-4.63,3.162-1.19a3.985,3.985,0,1,0,7.64-2.163c-.061-.163-.116-.293-.169-.408l3.054-1.352Z" transform="translate(-159.563 -223.316)"/></g></svg>