<svg xmlns="http://www.w3.org/2000/svg" width="30.787" height="37.531" viewBox="0 0 30.787 37.531"><defs><style>.a{fill:#fff;}</style></defs><path class="a" d="M76.709,22.022,73.94,15.1l2.769-6.922a1.1,1.1,0,0,0-1.021-1.508H62.86V4.1a1.1,1.1,0,0,0-1.1-1.1H48.2V1.1a1.1,1.1,0,0,0-2.2,0V36.432a1.1,1.1,0,0,0,2.2,0V19.865H57v2.566a1.1,1.1,0,0,0,1.1,1.1H75.688a1.1,1.1,0,0,0,1.021-1.508ZM60.661,17.666H48.2V5.2H60.661Zm.089,3.665,1.788-1.788a1.113,1.113,0,0,0,.322-.778V8.87h11.2l-2.329,5.822a1.1,1.1,0,0,0,0,.817l2.329,5.822Z" transform="translate(-46)"/></svg>