<svg xmlns="http://www.w3.org/2000/svg" width="61" height="61" viewBox="0 0 61 61"><defs><style>.a{fill:none;}.b{fill:#fff;}</style></defs><g transform="translate(0 0.201)"><rect class="a" width="61" height="61" transform="translate(0 -0.201)"/></g><g transform="translate(11.811 22.813)"><g transform="translate(0)"><path class="b" d="M24.836,21.335a.973.973,0,0,0-1.9.4,1.016,1.016,0,0,1-.206.852.988.988,0,0,1-.778.37h-19a.988.988,0,0,1-.778-.37,1.016,1.016,0,0,1-.206-.852,10.746,10.746,0,0,1,10.224-8.509q.128,0,.258,0t.259-.005a10.7,10.7,0,0,1,8.641,4.749.973.973,0,1,0,1.616-1.083,12.651,12.651,0,0,0-6.555-4.981,6.614,6.614,0,1,0-7.917,0A12.65,12.65,0,0,0,.063,21.335,2.955,2.955,0,0,0,2.952,24.9h19a2.955,2.955,0,0,0,2.888-3.563ZM7.781,6.614a4.668,4.668,0,1,1,4.9,4.663l-.236,0-.235,0A4.674,4.674,0,0,1,7.781,6.614Z" transform="translate(0)"/></g></g><g transform="translate(27.139 22.814)"><g transform="translate(0)"><path class="b" d="M24.836,21.335a.973.973,0,0,0-1.9.4,1.016,1.016,0,0,1-.206.852.988.988,0,0,1-.778.37h-19a.988.988,0,0,1-.778-.37,1.016,1.016,0,0,1-.206-.852,10.746,10.746,0,0,1,10.224-8.509q.128,0,.258,0t.259-.005a10.7,10.7,0,0,1,8.641,4.749.973.973,0,1,0,1.616-1.083,12.651,12.651,0,0,0-6.555-4.981,6.614,6.614,0,1,0-7.917,0A12.65,12.65,0,0,0,.063,21.335,2.955,2.955,0,0,0,2.952,24.9h19a2.955,2.955,0,0,0,2.888-3.563ZM7.781,6.614a4.668,4.668,0,1,1,4.9,4.663l-.236,0-.235,0A4.674,4.674,0,0,1,7.781,6.614Z" transform="translate(0)"/></g></g></svg>