<svg xmlns="http://www.w3.org/2000/svg" width="46.121" height="24.142" viewBox="0 0 46.121 24.142"><defs><style>.a{fill:#fff;}</style></defs><path class="a" d="M45.221,131.053H42.158v-4.459a1.713,1.713,0,0,0-1.712-1.712h-3.6v-1.171A1.713,1.713,0,0,0,35.132,122H31.438a1.713,1.713,0,0,0-1.712,1.712v7.3H27.114a.9.9,0,0,0,0,1.8h2.612v2.522H16.395V132.81h2.612a.9.9,0,0,0,0-1.8H16.395v-7.3A1.713,1.713,0,0,0,14.683,122H10.99a1.713,1.713,0,0,0-1.712,1.712v1.171h-3.6a1.713,1.713,0,0,0-1.712,1.712v4.414H.9a.9.9,0,0,0-.9.9v4.324a.9.9,0,0,0,.9.9H3.964v4.414a1.713,1.713,0,0,0,1.712,1.712h3.6v1.171a1.713,1.713,0,0,0,1.712,1.712h3.693a1.713,1.713,0,0,0,1.712-1.712v-7.3H29.727v7.3a1.713,1.713,0,0,0,1.712,1.712h3.693a1.713,1.713,0,0,0,1.712-1.712v-1.171h3.6a1.713,1.713,0,0,0,1.712-1.712v-4.459h3.063a.9.9,0,0,0,.9-.9v-4.234A.9.9,0,0,0,45.221,131.053Zm-41.257,1.8v2.432H1.8v-2.432Zm1.8,8.6V126.684H9.278v14.773Zm8.828,2.883H11.08V123.8h3.513Zm20.448,0H31.528V123.8h3.513Zm5.315-2.883H36.843V126.684h3.513Zm3.964-6.171H42.158v-2.432H44.32Z" transform="translate(0 -122)"/><path class="a" d="M246.86,223.46a.73.73,0,1,0-.516-.214A.736.736,0,0,0,246.86,223.46Z" transform="translate(-223.788 -212.854)"/></svg>