<svg xmlns="http://www.w3.org/2000/svg" width="41.292" height="37.747" viewBox="0 0 41.292 37.747"><defs><style>.a{fill:#c83030;}</style></defs><path class="a" d="M220.347,333.382a2.122,2.122,0,1,0,0,4.244,2.123,2.123,0,0,0,0-4.244Z" transform="translate(-199.702 -306.857)"/><path class="a" d="M40.286,54.928a7.246,7.246,0,0,0,.017-7.334L27.011,24.574A7.324,7.324,0,0,0,14.3,24.566L.986,47.611A7.351,7.351,0,0,0,7.352,58.629H33.9A7.31,7.31,0,0,0,40.286,54.928ZM37.4,53.264a4.011,4.011,0,0,1-3.506,2.029H7.344a3.956,3.956,0,0,1-3.463-1.986,4.017,4.017,0,0,1-.008-4.049L17.182,26.221a4,4,0,0,1,6.943.008l13.3,23.037A3.963,3.963,0,0,1,37.4,53.264Z" transform="translate(0 -20.882)"/><path class="a" d="M219.363,157.236a2.308,2.308,0,0,0-1.638,2.317c.051.671.093,1.35.144,2.02.144,2.555.289,5.059.433,7.614a1.555,1.555,0,0,0,1.587,1.494,1.587,1.587,0,0,0,1.587-1.545c0-.526,0-1.01.051-1.545.093-1.638.2-3.276.289-4.915.051-1.061.144-2.122.2-3.183a2.621,2.621,0,0,0-.2-1.061A2.127,2.127,0,0,0,219.363,157.236Z" transform="translate(-199.244 -145.607)"/></svg>