<svg xmlns="http://www.w3.org/2000/svg" width="20.573" height="16.165" viewBox="0 0 20.573 16.165"><defs><style>.a{fill:#fff;}</style></defs><g transform="translate(0 0)"><path class="a" d="M1.975,59.8q.39.275,2.354,1.636t3.008,2.095q.115.081.488.35t.62.436q.247.166.6.373A3.464,3.464,0,0,0,9.7,65a1.819,1.819,0,0,0,.574.1H10.3a1.821,1.821,0,0,0,.574-.1,3.467,3.467,0,0,0,.66-.31q.35-.207.6-.373t.62-.436q.373-.27.488-.35L18.61,59.8a5.454,5.454,0,0,0,1.4-1.412,3.032,3.032,0,0,0,.563-1.733,1.852,1.852,0,0,0-1.837-1.837H1.837a1.64,1.64,0,0,0-1.36.6A2.317,2.317,0,0,0,0,56.909a2.682,2.682,0,0,0,.631,1.567A5.7,5.7,0,0,0,1.975,59.8Z" transform="translate(0 -54.82)"/><path class="a" d="M19.425,185.436q-3.765,2.548-5.717,3.961-.654.482-1.062.752a6.552,6.552,0,0,1-1.085.551,3.3,3.3,0,0,1-1.263.281h-.023a3.3,3.3,0,0,1-1.263-.281,6.555,6.555,0,0,1-1.085-.551q-.407-.27-1.062-.752-1.55-1.137-5.706-3.961a6.081,6.081,0,0,1-1.16-1v9.115a1.768,1.768,0,0,0,.54,1.3,1.768,1.768,0,0,0,1.3.54h16.9a1.842,1.842,0,0,0,1.837-1.837v-9.115A6.333,6.333,0,0,1,19.425,185.436Z" transform="translate(0 -179.225)"/></g></svg>