<svg xmlns="http://www.w3.org/2000/svg" width="20.834" height="19" viewBox="0 0 20.834 19"><defs><style>.a{fill:#fff;}</style></defs><path class="a" d="M20.764,87.277C19.217,84.222,14.865,82,10.418,82S1.619,84.222.071,87.277a.658.658,0,0,0,0,.593c1.548,3.055,5.9,5.273,10.346,5.273,3.516,0,7.142-1.362,9.022-3.387a.655.655,0,1,0-.96-.892,9.272,9.272,0,0,1-3.759,2.24,5.549,5.549,0,0,0,.04-7.006,8.681,8.681,0,0,1,4.834,3.773.656.656,0,0,0,1.17-.593Zm-19.361.3A8.99,8.99,0,0,1,6.072,84.1a5.543,5.543,0,0,0,0,6.946A8.991,8.991,0,0,1,1.4,87.573Zm13.273,0a4.259,4.259,0,1,1-4.259-4.259A4.263,4.263,0,0,1,14.676,87.573Zm0,0" transform="translate(-0.001 -78.073)"/><path class="a" d="M165.089,148.687a2.621,2.621,0,1,0-.937-5.061,1.3,1.3,0,0,1-1.635,1.958,2.6,2.6,0,0,0,2.572,3.1Zm0,0" transform="translate(-154.673 -136.566)"/><path class="a" d="M53.9,19.084A.655.655,0,0,1,53.4,18L68.465.314a.655.655,0,1,1,1,.85L54.394,18.853A.655.655,0,0,1,53.9,19.084Zm0,0" transform="translate(-50.685 -0.084)"/></svg>