<svg xmlns="http://www.w3.org/2000/svg" width="37.55" height="41.795" viewBox="0 0 37.55 41.795"><defs><style>.a{fill:#fff;}</style></defs><g transform="translate(26.938 32.325)"><path class="a" d="M356.816,396a.816.816,0,1,0,.816.816A.817.817,0,0,0,356.816,396Z" transform="translate(-356 -396)"/></g><path class="a" d="M55.764,29.686l-3.88-1.293-1.393-2.786a8.941,8.941,0,0,0,2.42-4.73l.174-1.041h1.486a2.452,2.452,0,0,0,2.449-2.449V12.245a12.245,12.245,0,1,0-24.489,0v5.143A2.453,2.453,0,0,0,34.163,19.7v.957A2.452,2.452,0,0,0,36.612,23.1h.717a8.856,8.856,0,0,0,1.369,2.12c.116.133.236.262.36.387l-1.392,2.784-3.88,1.293A12.032,12.032,0,0,0,26,40.978a.816.816,0,0,0,.816.816H62.734a.816.816,0,0,0,.816-.816A12.032,12.032,0,0,0,55.764,29.686Zm-.377-12.3a.817.817,0,0,1-.816.816H53.325c.207-1.607.346-3.318.4-5,0-.048,0-.094,0-.14h1.656ZM34.979,18.2a.817.817,0,0,1-.816-.816V13.061H35.82q0,.128.009.257v.009h0c.057,1.638.194,3.3.4,4.876H34.979Zm1.633,3.265a.817.817,0,0,1-.816-.816v-.816h.669l.174,1.042c.033.2.074.4.121.591ZM35.8,11.428h-1.6a10.612,10.612,0,0,1,21.162,0h-1.6a8.268,8.268,0,0,0-8.247-8.163H44.044A8.268,8.268,0,0,0,35.8,11.428ZM44.044,4.9h1.461a6.638,6.638,0,0,1,6.616,6.646c0,.257,0,.481-.006.684,0,0,0,.005,0,.008l-1.021-.146A13.117,13.117,0,0,1,43.72,8.4a.817.817,0,0,0-.577-.239,7.385,7.385,0,0,0-5.678,2.686A6.636,6.636,0,0,1,44.044,4.9ZM38.452,21.469a46.659,46.659,0,0,1-.98-7.922l1.1-1.465A5.746,5.746,0,0,1,42.82,9.8a14.765,14.765,0,0,0,8.044,3.9l1.2.172c-.08,1.7-.244,3.416-.48,4.989v0c-.075.506-.134.831-.284,1.741a6.934,6.934,0,0,1-4.921,5.576A6.423,6.423,0,0,1,39.17,23.1h1.664a2.453,2.453,0,0,0,2.309,1.633h1.633a2.449,2.449,0,1,0,0-4.9H43.142a2.45,2.45,0,0,0-2.31,1.633Zm4.622,6.368a8.188,8.188,0,0,0,3.036.068l-1.442,1.525Zm.472,2.781-2.589,2.738a31.1,31.1,0,0,1-1.828-4.238l.972-1.945ZM49.311,26.9l1.11,2.221a31.093,31.093,0,0,1-1.828,4.239l-2.771-2.771Zm-6.985-4.612a.816.816,0,0,1,.816-.816h1.633a.816.816,0,1,1,0,1.633H43.142A.817.817,0,0,1,42.326,22.285ZM27.665,40.162A10.316,10.316,0,0,1,34.3,31.235l3.436-1.145a32.723,32.723,0,0,0,2.323,5.04l0,.008h0A32.73,32.73,0,0,0,42.3,38.55l1,1.612Zm17.11-.728-1.107-1.777q-.019-.03-.04-.058a31.123,31.123,0,0,1-1.839-2.748L44.7,31.773l3.068,3.068A31.089,31.089,0,0,1,45.922,37.6C45.882,37.652,45.939,37.568,44.775,39.434Zm1.47.728,1-1.612a32.72,32.72,0,0,0,2.25-3.439l.012-.022v0a32.7,32.7,0,0,0,2.3-5l3.436,1.145a10.316,10.316,0,0,1,6.637,8.927H46.245Z" transform="translate(-26)"/><g transform="translate(29.807 33.884)"><path class="a" d="M394.764,418.063a8.161,8.161,0,0,0-2.311-2.805.816.816,0,1,0-1,1.294,6.521,6.521,0,0,1,1.846,2.241.816.816,0,0,0,1.461-.73Z" transform="translate(-391.139 -415.088)"/></g></svg>