<svg xmlns="http://www.w3.org/2000/svg" width="45.975" height="45.975" viewBox="0 0 45.975 45.975"><defs><style>.a{fill:#fff;}</style></defs><path class="a" d="M42.26,0H34.751a.9.9,0,0,0,0,1.8H42.26a1.921,1.921,0,0,1,1.919,1.919v16.9a1.921,1.921,0,0,1-1.919,1.919H36.473a.9.9,0,0,0-.9.9v3.49L31.45,22.8a.9.9,0,0,0-.635-.263H19.16a1.921,1.921,0,0,1-1.919-1.919V3.717A1.921,1.921,0,0,1,19.16,1.8h7.509a.9.9,0,1,0,0-1.8H19.16a3.719,3.719,0,0,0-3.715,3.715V20.294H3.363A3.367,3.367,0,0,0,0,23.657v14.79A3.367,3.367,0,0,0,3.363,41.81H7.528v2.714a1.452,1.452,0,0,0,2.48,1.027l3.741-3.741h9.827a3.367,3.367,0,0,0,3.363-3.363V24.335h3.505l4.313,4.313a1.532,1.532,0,0,0,2.615-1.083V24.335H42.26a3.719,3.719,0,0,0,3.715-3.715V3.717A3.719,3.719,0,0,0,42.26,0ZM25.143,33.441H1.8V28.663H25.143Zm-1.567,6.573h-10.2a.9.9,0,0,0-.635.263L9.324,43.695V40.912a.9.9,0,0,0-.9-.9H3.363A1.569,1.569,0,0,1,1.8,38.447v-3.21H25.143v3.21A1.569,1.569,0,0,1,23.576,40.014Zm1.567-13.146H1.8v-3.21A1.569,1.569,0,0,1,3.363,22.09H15.749a3.72,3.72,0,0,0,3.411,2.245h5.983Z" transform="translate(0 -0.002)"/><path class="a" d="M368.784,91.213h3.328a.9.9,0,0,0,0-1.8h-2.43V87.264h2.184a.9.9,0,1,0,0-1.8h-2.184V83.316h2.43a.9.9,0,0,0,0-1.8h-3.328a.9.9,0,0,0-.9.9v7.9A.9.9,0,0,0,368.784,91.213Z" transform="translate(-334.852 -74.2)"/><path class="a" d="M259.955,81.492a.9.9,0,0,0-.9.9v7.9a.9.9,0,0,0,.892.9c.045,0,.756,0,1.42,0,.346,0,.68,0,.9-.005,2.321-.04,4.006-2.079,4.006-4.846,0-2.9-1.642-4.846-4.087-4.846Zm4.523,4.847c0,1.45-.7,3.024-2.241,3.051-.314.006-.89.005-1.384,0V83.288h1.334C263.876,83.288,264.478,84.864,264.478,86.339Z" transform="translate(-235.795 -74.175)"/><path class="a" d="M332.9,1.8a.9.9,0,0,0,.9-.9.9.9,0,1,0-1.533.635A.9.9,0,0,0,332.9,1.8Z" transform="translate(-302.188 -0.002)"/></svg>