<svg xmlns="http://www.w3.org/2000/svg" width="28.469" height="35.979" viewBox="0 0 28.469 35.979"><defs><style>.a{fill:#fff;}</style></defs><path class="a" d="M81.315,28.632a5.59,5.59,0,0,1-1.7-2.313c-1.464-3.1-1.771-7.461-1.771-10.577,0-.014,0-.027,0-.04a10.208,10.208,0,0,0-6.009-9.259V4.008a4.009,4.009,0,0,0-4-4.008H67.5a4.009,4.009,0,0,0-4,4.008V6.443a10.209,10.209,0,0,0-6.01,9.3c0,3.115-.307,7.479-1.771,10.577a5.59,5.59,0,0,1-1.7,2.313,1.025,1.025,0,0,0-.563,1.166,1.072,1.072,0,0,0,1.057.824h7.726a5.427,5.427,0,0,0,10.853,0h7.726a1.072,1.072,0,0,0,1.057-.824A1.025,1.025,0,0,0,81.315,28.632ZM65.61,4.008a1.9,1.9,0,0,1,1.893-1.9h.332a1.9,1.9,0,0,1,1.893,1.9V5.759a10.209,10.209,0,0,0-4.118,0V4.008Zm2.059,29.859a3.326,3.326,0,0,1-3.318-3.246h6.637A3.326,3.326,0,0,1,67.669,33.867Zm4.244-5.357H56.918a11.047,11.047,0,0,0,.552-.97c1.413-2.786,2.129-6.755,2.129-11.8a8.069,8.069,0,1,1,16.137,0c0,.013,0,.026,0,.039,0,5.022.72,8.977,2.129,11.755a11.055,11.055,0,0,0,.552.97Z" transform="translate(-53.434)"/></svg>