<svg xmlns="http://www.w3.org/2000/svg" width="28" height="28" viewBox="0 0 28 28"><defs><style>.a{fill:none;}.b{fill:#fff952;}.c{fill:#f3f3f1;}.d{fill:#d5dbe1;}.e{fill:#d8d347;}</style></defs><rect class="a" width="28" height="28"/><g transform="translate(3.568 2.347)"><path class="b" d="M14,26.25a2.922,2.922,0,1,0,5.844,0Z" transform="translate(-7.182 -6.526)"/><path class="c" d="M22.847,15.838v2.716A7.264,7.264,0,0,0,25.423,24.1h0l0,0a.974.974,0,0,1-.633,1.714H8.724a.974.974,0,0,1-.633-1.714l0,0h0a7.265,7.265,0,0,0,2.575-5.549V15.838a6.088,6.088,0,1,1,12.175,0Z" transform="translate(-7.019 -6.097)"/><path class="d" d="M9.942,24.847a.971.971,0,0,1,.341-.74l0,0h0a7.265,7.265,0,0,0,2.575-5.549V15.838a6.087,6.087,0,0,1,4.992-5.984,6.069,6.069,0,0,0-7.183,5.984v2.716A7.264,7.264,0,0,1,8.1,24.1h0l0,0a.974.974,0,0,0,.633,1.714h2.192A.977.977,0,0,1,9.942,24.847Z" transform="translate(-7.019 -6.097)"/><circle class="b" cx="4.14" cy="4.14" r="4.14" transform="translate(12.419 0.731)"/><path class="e" d="M21.942,10.89a4.128,4.128,0,0,1,3.044-3.974,4.079,4.079,0,0,0-1.1-.166,4.14,4.14,0,0,0,0,8.279,4.079,4.079,0,0,0,1.1-.166A4.128,4.128,0,0,1,21.942,10.89Z" transform="translate(-7.331 -6.019)"/><path d="M16.9,29.9A3.657,3.657,0,0,1,13.25,26.25h1.461a2.192,2.192,0,0,0,4.383,0h1.461A3.657,3.657,0,0,1,16.9,29.9Z" transform="translate(-7.162 -6.526)"/><path d="M24.776,26.532H8.7a1.7,1.7,0,0,1-1.107-3,.826.826,0,0,1,.074-.056,6.545,6.545,0,0,0,2.251-4.94V15.818A6.826,6.826,0,0,1,16.74,9a2.944,2.944,0,0,1,.48.029l-.24,1.441a1.425,1.425,0,0,0-.241-.01,5.363,5.363,0,0,0-5.357,5.357v2.718a8.006,8.006,0,0,1-2.829,6.108c-.013.011-.025.021-.04.032a.241.241,0,0,0-.054.153.246.246,0,0,0,.244.244H24.776a.246.246,0,0,0,.244-.244.237.237,0,0,0-.054-.153c-.014-.01-.026-.02-.039-.031a8,8,0,0,1-2.83-6.108V17.474h1.461v1.062a6.55,6.55,0,0,0,2.254,4.943.755.755,0,0,1,.071.054,1.7,1.7,0,0,1-1.107,3Z" transform="translate(-7 -6.078)"/><path d="M23.87,15.74a4.87,4.87,0,1,1,4.87-4.87A4.876,4.876,0,0,1,23.87,15.74Zm0-8.279a3.409,3.409,0,1,0,3.409,3.409A3.413,3.413,0,0,0,23.87,7.461Z" transform="translate(-7.312 -6)"/></g></svg>