<svg xmlns="http://www.w3.org/2000/svg" width="28.766" height="28.767" viewBox="0 0 28.766 28.767"><defs><style>.a{fill:#fff;}</style></defs><path class="a" d="M161.043,16.068a8.034,8.034,0,1,0-8.034-8.034A8.043,8.043,0,0,0,161.043,16.068Zm0-14.383a6.349,6.349,0,1,1-6.349,6.349A6.356,6.356,0,0,1,161.043,1.685Z" transform="translate(-144.411)"/><g transform="translate(14.216 3.371)"><path class="a" d="M256.384,63.838a6.008,6.008,0,0,1-1.448-.667.329.329,0,0,1-.032-.26.469.469,0,0,1,.3-.371,1.018,1.018,0,0,1,.9.125.843.843,0,0,0,1.14-1.241,2.743,2.743,0,0,0-.949-.512v-.069a.843.843,0,0,0-1.685,0v.122a2.111,2.111,0,0,0-.71,3.533,7.036,7.036,0,0,0,1.925.93.563.563,0,0,1,.422.673.8.8,0,0,1-.8.68,1.5,1.5,0,0,1-1.105-.285.843.843,0,1,0-.923,1.41,3.051,3.051,0,0,0,1.191.507v.081a.843.843,0,0,0,1.685,0v-.176A2.367,2.367,0,0,0,256.384,63.838Z" transform="translate(-253.034 -60)"/></g><path class="a" d="M24.391,275.134l-9.661,2.2a2.884,2.884,0,0,0-.756-.5l-4.961-2.226a5.458,5.458,0,0,0-4.527.02L.5,276.445a.843.843,0,1,0,.7,1.534l3.991-1.816a3.777,3.777,0,0,1,3.134-.015l4.961,2.226a1.207,1.207,0,0,1-.99,2.2L8,278.644a.843.843,0,0,0-.692,1.537l4.289,1.93a2.893,2.893,0,0,0,4.012-3.252c6.293-1.432,9.187-2.09,9.228-2.1a1.747,1.747,0,0,1,1.389,3.177l-9.079,5.347a3.752,3.752,0,0,1-3.16.314l-6.966-2.438a.843.843,0,0,0-.578.008l-5.9,2.247a.843.843,0,1,0,.6,1.575l5.611-2.138,6.675,2.336a5.432,5.432,0,0,0,4.574-.453l9.079-5.347a3.432,3.432,0,0,0-2.7-6.252Z" transform="translate(-0.005 -258.728)"/></svg>