<svg xmlns="http://www.w3.org/2000/svg" width="15.025" height="20.033" viewBox="0 0 15.025 20.033"><defs><style>.a{fill:#fff;}</style></defs><path class="a" d="M78.608,7.513H77.356V5.843a5.843,5.843,0,0,0-11.686,0V7.513H64.417A.417.417,0,0,0,64,7.93V18.364a1.671,1.671,0,0,0,1.669,1.669H77.356a1.671,1.671,0,0,0,1.669-1.669V7.93A.417.417,0,0,0,78.608,7.513Zm-5.846,8.719a.417.417,0,0,1-.415.463H70.678a.417.417,0,0,1-.415-.463l.263-2.368a1.651,1.651,0,0,1-.683-1.343,1.669,1.669,0,1,1,3.339,0,1.651,1.651,0,0,1-.683,1.343Zm2.089-8.719H68.174V5.843a3.339,3.339,0,0,1,6.678,0Z" transform="translate(-64)"/></svg>