<svg xmlns="http://www.w3.org/2000/svg" width="28.385" height="35.974" viewBox="0 0 28.385 35.974"><defs><style>.a{fill:#fff;}</style></defs><g transform="translate(0)"><path class="a" d="M78.872,2.073H71.341a3.427,3.427,0,0,0-6.3,0H57.513A3.517,3.517,0,0,0,54,5.586V32.461a3.517,3.517,0,0,0,3.513,3.513H78.872a3.517,3.517,0,0,0,3.513-3.513V5.586A3.517,3.517,0,0,0,78.872,2.073ZM65.549,3.478a.7.7,0,0,0,.682-.535,2.02,2.02,0,0,1,3.923,0,.7.7,0,0,0,.682.535H72.6a.51.51,0,0,1,.509.509V5.445H63.274V3.987a.51.51,0,0,1,.509-.509ZM80.98,32.461a2.11,2.11,0,0,1-2.108,2.108H57.513a2.11,2.11,0,0,1-2.108-2.108V5.586a2.11,2.11,0,0,1,2.108-2.108h4.426a1.911,1.911,0,0,0-.069.509V5.445H58.075a.7.7,0,0,0-.7.7V31.9a.7.7,0,0,0,.7.7h7.307a.7.7,0,0,0,0-1.405h-6.6V6.85h18.83V31.2H71A.7.7,0,0,0,71,32.6H78.31a.7.7,0,0,0,.7-.7V6.148a.7.7,0,0,0-.7-.7H74.516V3.987a1.908,1.908,0,0,0-.069-.509h4.426A2.11,2.11,0,0,1,80.98,5.586Z" transform="translate(-54)"/><path class="a" d="M246.7,444a.7.7,0,1,0,.5.206A.708.708,0,0,0,246.7,444Z" transform="translate(-232.51 -412.804)"/><path class="a" d="M277.2,134.905h4.567a.7.7,0,0,0,0-1.405H277.2a.7.7,0,0,0,0,1.405Z" transform="translate(-260.867 -124.12)"/><path class="a" d="M277.2,174.905h2.283a.7.7,0,1,0,0-1.405H277.2a.7.7,0,0,0,0,1.405Z" transform="translate(-260.867 -161.31)"/><path class="a" d="M156.2,137.715a.7.7,0,0,0,.5-.206l1.212-1.212.786.786a.7.7,0,0,0,.994,0l1.2-1.2a.7.7,0,0,0,1.392-.137V134.2a.7.7,0,0,0-.7-.7h-1.546a.7.7,0,0,0-.137,1.392l-.7.7-.786-.786a.7.7,0,0,0-.994,0l-1.709,1.709a.7.7,0,0,0,.5,1.2Z" transform="translate(-148.37 -124.119)"/><path class="a" d="M277.2,238.905h4.567a.7.7,0,1,0,0-1.405H277.2a.7.7,0,1,0,0,1.405Z" transform="translate(-260.867 -220.813)"/><path class="a" d="M277.2,278.905h2.283a.7.7,0,0,0,0-1.405H277.2a.7.7,0,0,0,0,1.405Z" transform="translate(-260.867 -258.003)"/><path class="a" d="M156.2,241.715a.7.7,0,0,0,.5-.206l1.212-1.212.786.786a.7.7,0,0,0,.994,0l1.2-1.2a.7.7,0,0,0,1.392-.137V238.2a.7.7,0,0,0-.7-.7h-1.546a.7.7,0,0,0-.137,1.392l-.7.7-.786-.786a.7.7,0,0,0-.994,0l-1.709,1.709a.7.7,0,0,0,.5,1.2Z" transform="translate(-148.37 -220.812)"/><path class="a" d="M277.2,343.905h4.567a.7.7,0,0,0,0-1.405H277.2a.7.7,0,0,0,0,1.405Z" transform="translate(-260.867 -318.436)"/><path class="a" d="M279.486,383.905a.7.7,0,1,0,0-1.405H277.2a.7.7,0,0,0,0,1.405Z" transform="translate(-260.867 -355.625)"/><path class="a" d="M162.283,344.748V343.2a.7.7,0,0,0-.7-.7h-1.546a.7.7,0,0,0-.137,1.392l-.7.7-.786-.786a.7.7,0,0,0-.994,0l-1.709,1.709a.7.7,0,1,0,.994.994l1.212-1.212.786.786a.7.7,0,0,0,.994,0l1.2-1.2a.7.7,0,0,0,1.392-.137Z" transform="translate(-148.37 -318.436)"/><path class="a" d="M246.7,40.155a.7.7,0,1,0-.5-.206A.708.708,0,0,0,246.7,40.155Z" transform="translate(-232.51 -36.027)"/></g></svg>