<svg xmlns="http://www.w3.org/2000/svg" width="37.71" height="37.71" viewBox="0 0 37.71 37.71"><defs><style>.a{fill:#fff;stroke:#fff;}</style></defs><g transform="translate(0.5 0.5)"><path class="a" d="M34.337,13.978l-1.537-.11a15.063,15.063,0,0,0-1.064-2.561l1.009-1.167a2.564,2.564,0,0,0-.126-3.477l-2.58-2.58a2.564,2.564,0,0,0-3.48-.124L25.394,4.97a15.055,15.055,0,0,0-2.562-1.062l-.111-1.537A2.564,2.564,0,0,0,20.173,0H16.525a2.563,2.563,0,0,0-2.548,2.373l-.11,1.538a15.058,15.058,0,0,0-2.55,1.058L10.15,3.958a2.564,2.564,0,0,0-3.479.124L4.091,6.662a2.564,2.564,0,0,0-.125,3.478l1.009,1.165a15.058,15.058,0,0,0-1.064,2.561l-1.539.11A2.564,2.564,0,0,0,0,16.525v3.648a2.564,2.564,0,0,0,2.371,2.548l1.536.111a15.065,15.065,0,0,0,1.061,2.562L3.957,26.561a2.564,2.564,0,0,0,.125,3.479l1.247,1.247a.573.573,0,0,0,.81-.81L4.892,29.23a1.414,1.414,0,0,1-.069-1.919l1.271-1.467a.573.573,0,0,0,.066-.656A13.907,13.907,0,0,1,4.9,22.135a.573.573,0,0,0-.51-.417l-1.932-.139a1.414,1.414,0,0,1-1.307-1.405V16.525A1.414,1.414,0,0,1,2.454,15.12l1.934-.139a.573.573,0,0,0,.511-.416,13.909,13.909,0,0,1,1.268-3.053.573.573,0,0,0-.066-.656L4.832,9.39A1.414,1.414,0,0,1,4.9,7.472l2.58-2.58A1.414,1.414,0,0,1,9.4,4.824L10.867,6.1a.573.573,0,0,0,.656.066A13.893,13.893,0,0,1,14.565,4.9a.573.573,0,0,0,.417-.511l.138-1.934a1.414,1.414,0,0,1,1.405-1.308h3.648a1.414,1.414,0,0,1,1.405,1.307l.14,1.933a.573.573,0,0,0,.417.51,13.905,13.905,0,0,1,3.054,1.265.573.573,0,0,0,.656-.067l1.466-1.271a1.414,1.414,0,0,1,1.919.068l2.58,2.579a1.414,1.414,0,0,1,.069,1.918L30.61,10.857a.573.573,0,0,0-.066.656,13.91,13.91,0,0,1,1.268,3.053.573.573,0,0,0,.511.417l1.933.138a1.414,1.414,0,0,1,1.309,1.405v3.648a1.414,1.414,0,0,1-1.307,1.405l-1.933.14a.573.573,0,0,0-.51.417,13.91,13.91,0,0,1-1.265,3.054.573.573,0,0,0,.067.656l1.271,1.466a1.414,1.414,0,0,1-.068,1.919l-2.58,2.58a1.414,1.414,0,0,1-1.918.069L25.854,30.61a.573.573,0,0,0-.656-.066,13.908,13.908,0,0,1-3.064,1.271.573.573,0,0,0-.417.511l-.139,1.932a1.414,1.414,0,0,1-1.405,1.307H16.524a1.414,1.414,0,0,1-1.405-1.308l-.139-1.934a.573.573,0,0,0-.416-.511,13.908,13.908,0,0,1-3.053-1.268.573.573,0,0,0-.656.066L9.389,31.879a1.414,1.414,0,0,1-1.918-.069.573.573,0,1,0-.81.81,2.564,2.564,0,0,0,3.478.125L11.3,31.736A15.063,15.063,0,0,0,13.866,32.8l.11,1.539a2.564,2.564,0,0,0,2.548,2.372h3.648A2.564,2.564,0,0,0,22.72,34.34l.111-1.536A15.054,15.054,0,0,0,25.4,31.737l1.167,1.009a2.564,2.564,0,0,0,3.477-.126l2.58-2.58a2.564,2.564,0,0,0,.124-3.48L31.741,25.4A15.053,15.053,0,0,0,32.8,22.833l1.537-.111a2.564,2.564,0,0,0,2.37-2.548V16.526A2.564,2.564,0,0,0,34.337,13.978Z" transform="translate(0 -0.001)"/><path class="a" d="M160.566,154.341a6.229,6.229,0,0,1,1.836.275.573.573,0,1,0,.337-1.095,7.377,7.377,0,1,0,2.278,1.17.573.573,0,1,0-.693.913,6.226,6.226,0,1,1-3.759-1.262Z" transform="translate(-142.211 -142.211)"/></g></svg>