<svg xmlns="http://www.w3.org/2000/svg" width="20.834" height="11.138" viewBox="0 0 20.834 11.138"><defs><style>.a{fill:#fff;}</style></defs><path class="a" d="M20.764,5.355C19.217,2.3,14.865.082,10.418.082S1.619,2.3.071,5.355a.658.658,0,0,0,0,.592C1.619,9,5.971,11.22,10.418,11.22c3.516,0,7.142-1.362,9.022-3.387a.655.655,0,1,0-.96-.892,9.27,9.27,0,0,1-3.759,2.24,5.549,5.549,0,0,0,.04-7.006,8.681,8.681,0,0,1,4.834,3.773.656.656,0,1,0,1.17-.592ZM1.4,5.651A8.99,8.99,0,0,1,6.072,2.178a5.543,5.543,0,0,0,0,6.946A8.99,8.99,0,0,1,1.4,5.651Zm13.273,0a4.259,4.259,0,1,1-4.259-4.259A4.263,4.263,0,0,1,14.676,5.651Zm0,0" transform="translate(-0.001 -0.082)"/><path class="a" d="M165.089,61.523a2.6,2.6,0,0,0-.937.18,1.3,1.3,0,0,1-1.635,1.958,2.619,2.619,0,1,0,2.572-2.138Zm0,0" transform="translate(-154.673 -58.575)"/></svg>