<svg xmlns="http://www.w3.org/2000/svg" width="39.52" height="39.52" viewBox="0 0 39.52 39.52"><defs><style>.a{fill:#2bc86a;}</style></defs><g transform="translate(13.174 13.996)"><path class="a" d="M143.162,136.484a1.646,1.646,0,0,0-2.328,0l-7.069,7.068-2.952-2.952a1.646,1.646,0,0,0-2.328,2.328l4.117,4.117a1.646,1.646,0,0,0,2.328,0l8.233-8.233A1.646,1.646,0,0,0,143.162,136.484Z" transform="translate(-128.002 -136.002)"/></g><g transform="translate(0 0)"><path class="a" d="M37.873,18.113a1.647,1.647,0,0,0-1.647,1.647,16.465,16.465,0,1,1-4.781-11.6,1.646,1.646,0,1,0,2.337-2.32A19.76,19.76,0,1,0,39.52,19.76,1.647,1.647,0,0,0,37.873,18.113Z" transform="translate(0 0)"/></g></svg>